/* XPM */
static char * gnuitar_xpm[] = {
"32 32 6 1",
" 	c None",
".	c #FFFF00",
"+	c #FF9933",
"@	c #FFFF99",
"#	c #FF0000",
"$	c #FFCC00",
"                                ",
"                      ..        ",
"                     .  .       ",
"                     .  .       ",
"                    .   +       ",
"                    .  +        ",
"                   .   +        ",
"                   .  +         ",
"                  .  +          ",
"                  ..+           ",
"                 ..             ",
"               ...              ",
"             @@  .              ",
"           @..  .               ",
"          @.    .               ",
"         .+    .       ..       ",
"        @+    .     ...+#       ",
"       .#     . ....++#         ",
"      .#     +                  ",
"     +#      +     .            ",
"     +#     +    ..+            ",
"     ##    +    .++             ",
"     #+    +   .+               ",
"      #++++  $##                ",
"       ######                   ",
"         +                      ",
"        +                       ",
"       #                        ",
"  ++###                         ",
"  ###                           ",
"                                ",
"                                "};
